<svg width="35" height="36" viewBox="0 0 35 36" fill="none" xmlns="http://www.w3.org/2000/svg">
<path d="M32.9005 22.8461C29.5725 22.8461 12.7758 22.8461 9.80012 22.8461V21.4616C15.2277 21.4616 31.8859 21.4616 32.9005 21.4616C33.2858 21.4616 33.6001 21.7717 33.6001 22.1535C33.6001 22.5353 33.2858 22.8461 32.9005 22.8461ZM29.4004 34.6148H28.0005V24.2306H29.4004V34.6148ZM11.2 13.1539C11.2 14.2986 10.258 15.2303 9.0998 15.2303C7.94156 15.2303 6.99955 14.2986 6.99955 13.1539C6.99955 12.0084 7.94156 11.0768 9.0998 11.0768C10.258 11.0768 11.2 12.0084 11.2 13.1539ZM13.9999 26.3077C7.05194 26.3077 1.39992 20.7172 1.39992 13.8458C1.39992 6.97505 7.05194 1.3845 13.9999 1.3845C21.7289 1.3845 27.7229 8.26483 26.4247 15.9229H24.2878C25.6174 9.45176 20.5924 3.46162 13.9999 3.46162C8.21017 3.46162 3.49941 8.11979 3.49941 13.8458C3.49941 17.4065 5.3677 20.735 8.40022 22.6308V23.538C8.40022 23.9206 8.71297 24.2306 9.0998 24.2306H20.9635C18.9119 25.5796 16.4989 26.3077 13.9999 26.3077ZM16.7997 29.0768C15.5404 29.0768 12.4615 29.0768 11.2 29.0768V27.414C13.0047 27.7773 14.9142 27.7921 16.7997 27.4133V29.0768ZM14.7002 34.6148H13.3003V30.4613H14.7002V34.6148ZM16.7997 13.1539C16.7997 12.0084 17.7417 11.0768 18.8999 11.0768C20.0581 11.0768 21.0002 12.0084 21.0002 13.1539C21.0002 14.2986 20.0581 15.2303 18.8999 15.2303C17.7417 15.2303 16.7997 14.2986 16.7997 13.1539ZM14.7002 18.6919C14.7002 19.4555 14.0717 20.0764 13.3003 20.0764C12.5281 20.0764 11.8996 19.4555 11.8996 18.6919C11.8996 17.929 12.5281 17.3074 13.3003 17.3074C14.0717 17.3074 14.7002 17.929 14.7002 18.6919ZM13.9999 11.0768C12.8416 11.0768 11.8996 10.1451 11.8996 8.99963C11.8996 7.85488 12.8416 6.92325 13.9999 6.92325C15.1581 6.92325 16.1001 7.85488 16.1001 8.99963C16.1001 10.1451 15.1581 11.0768 13.9999 11.0768ZM27.3001 17.3074C28.0723 17.3074 28.7 17.929 28.7 18.6919C28.7 19.4555 28.0723 20.0764 27.3001 20.0764H17.5C16.7278 20.0764 16.1001 19.4555 16.1001 18.6919C16.1001 17.929 16.7278 17.3074 17.5 17.3074C21.9616 17.3074 22.2347 17.3074 22.2474 17.3074C22.2482 17.3074 22.2482 17.3074 22.2482 17.3074C22.2609 17.3074 22.5333 17.3074 26.9964 17.3074C26.9978 17.3074 27.2889 17.3074 27.3001 17.3074ZM32.9005 20.0764H29.7236C29.9623 19.6694 30.0999 19.1965 30.0999 18.6919C30.0999 17.3459 29.1235 16.2218 27.8344 15.9739C29.1542 7.51893 22.5123 0 13.9999 0C6.28053 0 0 6.21139 0 13.8458C0 20.0342 4.12566 25.2866 9.80012 27.0551V29.7686C9.80012 30.1512 10.1129 30.4613 10.4997 30.4613H11.8996V34.6148H11.2C10.8132 34.6148 10.4997 34.9248 10.4997 35.3074C10.4997 35.6899 10.8132 36 11.2 36C12.9471 36 15.1588 36 16.7997 36C17.1865 36 17.5 35.6899 17.5 35.3074C17.5 34.9248 17.1865 34.6148 16.7997 34.6148H16.1001V30.4613H17.5C17.8868 30.4613 18.1996 30.1512 18.1996 29.7686V27.0559C20.0522 26.4802 21.7746 25.5241 23.2568 24.2306H26.5998V34.6148H25.9002C25.5134 34.6148 25.1999 34.9248 25.1999 35.3074C25.1999 35.6899 25.5134 36 25.9002 36H27.3001C27.9369 36 30.3962 36 31.4998 36C31.8867 36 32.2002 35.6899 32.2002 35.3074C32.2002 34.9248 31.8867 34.6148 31.4998 34.6148H30.8003V24.2306H32.9005C34.058 24.2306 35 23.299 35 22.1535C35 21.0088 34.058 20.0764 32.9005 20.0764Z" fill="#1C293F"/>
<path d="M19.6018 13.1538C19.6018 12.772 19.2876 12.4612 18.9015 12.4612C18.5154 12.4612 18.2012 12.772 18.2012 13.1538C18.2012 13.5357 18.5154 13.8457 18.9015 13.8457C19.2876 13.8457 19.6018 13.5357 19.6018 13.1538Z" fill="#1C293F"/>
<path d="M8.40039 13.1538C8.40039 13.5357 8.71389 13.8457 9.09997 13.8457C9.48605 13.8457 9.8003 13.5357 9.8003 13.1538C9.8003 12.772 9.48605 12.4612 9.09997 12.4612C8.71389 12.4612 8.40039 12.772 8.40039 13.1538Z" fill="#1C293F"/>
<path d="M14.0004 8.30886C13.6143 8.30886 13.3008 8.61891 13.3008 9.00074C13.3008 9.38257 13.6143 9.69336 14.0004 9.69336C14.3864 9.69336 14.7007 9.38257 14.7007 9.00074C14.7007 8.61891 14.3864 8.30886 14.0004 8.30886Z" fill="#1C293F"/>
</svg>
