<svg width="39" height="36" viewBox="0 0 39 36" fill="none" xmlns="http://www.w3.org/2000/svg">
<path d="M14.2376 8.73248C14.3924 8.88899 14.5956 8.9668 14.7979 8.9668C15.0001 8.9668 15.2033 8.88899 15.3582 8.73248L18.4373 5.62123C18.9595 5.09271 19.656 4.8028 20.3975 4.8028C21.1389 4.8028 21.8346 5.09271 22.3568 5.62123C22.6657 5.93338 23.1676 5.93338 23.4766 5.62123C23.7855 5.30822 23.7855 4.80193 23.4766 4.48978C22.6556 3.65937 21.5612 3.20186 20.3975 3.20186C19.2328 3.20186 18.1393 3.65937 17.3175 4.48978L14.2376 7.60104C13.9286 7.91319 13.9286 8.42033 14.2376 8.73248Z" fill="#1C293F"/>
<path d="M9.47998 22.5952C8.95777 23.1228 8.26205 23.4136 7.52063 23.4136C6.77921 23.4136 6.08349 23.1228 5.56128 22.5952C5.25151 22.283 4.75045 22.283 4.44068 22.5952C4.13175 22.9073 4.13175 23.4144 4.44068 23.7266C5.26251 24.557 6.35602 25.0137 7.52063 25.0137C8.68524 25.0137 9.77875 24.557 10.5997 23.7266C10.9095 23.4144 10.9095 22.9073 10.5997 22.5952C10.2908 22.283 9.78976 22.283 9.47998 22.5952Z" fill="#1C293F"/>
<path d="M34.6384 31.5923C32.7857 33.4643 30.3533 34.4008 27.9199 34.3999C25.7346 34.3999 23.5484 33.6448 21.7837 32.1345L35.175 18.6042C38.3328 22.3723 38.1551 28.0397 34.6384 31.5923ZM11.7187 24.8566C10.5964 25.9906 9.10506 26.615 7.51896 26.615C5.93286 26.615 4.44155 25.9906 3.31926 24.8566C1.00443 22.5168 1.00443 18.7102 3.31926 16.3704L9.19901 10.4301L17.5976 18.9164L11.7187 24.8566ZM16.1977 3.35756C17.3191 2.22441 18.8104 1.60011 20.3974 1.60011C21.9835 1.60011 23.4748 2.22441 24.5962 3.35756C26.9119 5.69741 26.9119 9.50479 24.5962 11.8446L18.7173 17.7849L10.3188 9.29869L16.1977 3.35756ZM35.7582 16.8827C32.7392 13.8322 28.3964 12.9128 24.5793 14.1246L25.716 12.9761C27.137 11.5402 27.9199 9.63136 27.9199 7.6011C27.9199 5.57084 27.137 3.66201 25.716 2.22611C24.2958 0.791073 22.4067 0 20.3974 0C18.3881 0 16.499 0.791073 15.0779 2.22611L2.19951 15.239C-0.73317 18.2023 -0.73317 23.0248 2.19951 25.9881C3.62057 27.424 5.50967 28.215 7.51896 28.215C9.52825 28.215 11.4174 27.424 12.8384 25.9881L17.3513 21.4281C16.152 25.2851 17.061 29.6732 20.0808 32.7246C22.2416 34.9079 25.0803 36 27.9199 36C30.7587 36 33.5974 34.9079 35.7582 32.7246C40.0806 28.357 40.0806 21.2502 35.7582 16.8827Z" fill="#1C293F"/>
<path d="M34.8143 22.6383C34.5046 22.3261 34.0035 22.3261 33.6946 22.6383L30.5266 25.8384C30.2177 26.1515 30.2177 26.6578 30.5266 26.9708C30.6815 27.1264 30.8838 27.2051 31.0869 27.2051C31.2892 27.2051 31.4923 27.1264 31.6464 26.9708L34.8143 23.7697C35.1233 23.4576 35.1233 22.9504 34.8143 22.6383Z" fill="#1C293F"/>
</svg>
