<svg width="37" height="32" viewBox="0 0 37 32" fill="none" xmlns="http://www.w3.org/2000/svg">
<path d="M22.0571 12.0892H19.9223C19.5291 12.0892 19.2104 12.4076 19.2104 12.7998V14.9334H17.7874V12.7998C17.7874 12.4076 17.4688 12.0892 17.0763 12.0892H14.9415V10.6671H17.0763C17.4688 10.6671 17.7874 10.3486 17.7874 9.95562V7.82209H19.2104V9.95562C19.2104 10.3486 19.5291 10.6671 19.9223 10.6671H22.0571V12.0892ZM22.7682 9.24495H20.6341V7.11142C20.6341 6.71846 20.3155 6.39999 19.9223 6.39999H17.0763C16.6831 6.39999 16.3645 6.71846 16.3645 7.11142V9.24495H14.2297C13.8372 9.24495 13.5186 9.56342 13.5186 9.95562V12.7998C13.5186 13.1928 13.8372 13.5113 14.2297 13.5113H16.3645V15.6448C16.3645 16.037 16.6831 16.3555 17.0763 16.3555H19.9223C20.3155 16.3555 20.6341 16.037 20.6341 15.6448V13.5113H22.7682C23.1614 13.5113 23.48 13.1928 23.48 12.7998V9.95562C23.48 9.56342 23.1614 9.24495 22.7682 9.24495Z" fill="#1C293F"/>
<path d="M22.7689 19.2003V18.4889C22.7689 18.0959 22.4502 17.7782 22.0578 17.7782H14.9422C14.549 17.7782 14.2304 18.0959 14.2304 18.4889V19.2003H1.42296V13.5111H9.96149C10.3547 13.5111 10.6733 13.1927 10.6733 12.7997C10.6733 12.4075 10.3547 12.089 9.96149 12.089H1.42296V10.6669H9.96149C10.3547 10.6669 10.6733 10.3484 10.6733 9.95548C10.6733 9.56328 10.3547 9.24481 9.96149 9.24481H1.42296V7.38339C1.42296 6.05706 2.50292 4.97775 3.83006 4.97775H11.3844H25.6148H33.1692C34.4971 4.97775 35.5763 6.05706 35.5763 7.38339V9.24481H27.0385C26.6453 9.24481 26.3267 9.56328 26.3267 9.95548C26.3267 10.3484 26.6453 10.6669 27.0385 10.6669H35.5763V12.089H27.0385C26.6453 12.089 26.3267 12.4075 26.3267 12.7997C26.3267 13.1927 26.6453 13.5111 27.0385 13.5111H35.5763V19.2003H22.7689ZM32.7304 28.661C32.7304 29.7175 31.8702 30.5779 30.8123 30.5779H20.6348V23.4666H22.0578C22.4502 23.4666 22.7689 23.1481 22.7689 22.7559V20.6224H32.7304V28.661ZM4.26889 28.661V20.6224H14.2304V22.7559C14.2304 23.1481 14.549 23.4666 14.9422 23.4666H16.3652V30.5779H6.18695C5.12981 30.5779 4.26889 29.7175 4.26889 28.661ZM12.0963 2.72412C12.0963 2.00661 12.6804 1.4221 13.3991 1.4221H23.6009C24.3189 1.4221 24.9037 2.00661 24.9037 2.72412V3.55563H12.0963V2.72412ZM33.1692 3.55563H26.3267V2.72412C26.3267 1.22221 25.1037 0 23.6009 0H13.3991C11.8955 0 10.6733 1.22221 10.6733 2.72412V3.55563H3.83006C1.71805 3.55563 0 5.27266 0 7.38339V19.911C0 20.3039 0.318668 20.6224 0.711865 20.6224H2.84592V28.661C2.84592 30.5019 4.34493 32 6.18695 32H17.077H19.923H30.8123C32.6551 32 34.1533 30.5019 34.1533 28.661V20.6224H36.2881C36.6813 20.6224 37 20.3039 37 19.911V7.38339C37 5.27266 35.2812 3.55563 33.1692 3.55563Z" fill="#1C293F"/>
</svg>
