<svg width="37" height="36" viewBox="0 0 37 36" fill="none" xmlns="http://www.w3.org/2000/svg">
<path d="M31.7881 27.0726C31.5835 26.4644 31.239 25.8932 30.7522 25.4103L28.2866 22.964C26.6081 21.2986 23.8777 21.2986 22.1985 22.964L21.2182 23.9374L12.1617 14.9519L13.1428 13.9785C14.8213 12.3131 14.8213 9.60347 13.1428 7.93812L10.6771 5.49254C10.4642 5.28126 10.2338 5.09715 9.99115 4.93869C12.7869 2.65761 16.2747 1.41182 19.923 1.41182C28.5543 1.41182 35.577 8.3788 35.577 16.9425C35.577 20.7116 34.2408 24.2573 31.7881 27.0726ZM23.2305 34.592C21.7193 34.592 20.2987 34.0079 19.2301 32.9477L3.08016 16.9236C2.01161 15.8642 1.42296 14.4546 1.42296 12.9553C1.42296 11.4559 2.01161 10.0472 3.08016 8.98698L3.60798 8.46255L10.652 15.4514C10.652 15.4514 10.6521 15.4514 10.6528 15.4514L20.7139 25.4344C20.7147 25.4344 20.7147 25.4352 20.7147 25.4352L27.7587 32.4233L27.2302 32.9477C26.1616 34.0079 24.7409 34.592 23.2305 34.592ZM31.998 4.96209C28.7725 1.76194 24.4846 0 19.923 0C15.6906 0 11.656 1.53631 8.51647 4.33503C7.14219 4.05056 5.65382 4.43613 4.58907 5.49254L3.10527 6.96472L2.07399 7.98867C0.736206 9.31522 0 11.0794 0 12.9553C0 14.8319 0.736206 16.5954 2.07399 17.9219L18.2239 33.946C19.6043 35.3156 21.4174 36 23.2305 36C25.0436 36 26.856 35.3156 28.2364 33.946L29.2677 32.9229L30.7522 31.4499C31.461 30.7466 31.8694 29.857 31.979 28.9387C33.519 27.416 34.7374 25.6457 35.5991 23.6718C36.5285 21.5439 37 19.2801 37 16.9425C37 12.4173 35.2234 8.16224 31.998 4.96209Z" fill="#1C293F"/>
<path d="M29.1733 9.52998H26.6826V7.05875C26.6826 6.66939 26.3639 6.35322 25.9707 6.35322H22.4137C22.0205 6.35322 21.7018 6.66939 21.7018 7.05875V9.52998H19.2111C18.8187 9.52998 18.5 9.84615 18.5 10.2355V13.7654C18.5 14.1555 18.8187 14.4717 19.2111 14.4717H21.7018V16.9422C21.7018 17.3323 22.0205 17.6484 22.4137 17.6484H25.9707C26.3639 17.6484 26.6826 17.3323 26.6826 16.9422V14.4717H29.1733C29.5658 14.4717 29.8844 14.1555 29.8844 13.7654V10.2355C29.8844 9.84615 29.5658 9.52998 29.1733 9.52998Z" fill="#1C293F"/>
</svg>
