<svg width="39" height="36" viewBox="0 0 39 36" fill="none" xmlns="http://www.w3.org/2000/svg">
<path d="M35.4608 22.9907L22.9672 32.9858L10.5 32.2907V24H22.4998C23.3271 24 23.9997 24.6734 23.9997 25.4999C23.9997 26.3272 23.3271 27.0006 22.4998 27.0006H14.2501C13.8356 27.0006 13.4997 27.3357 13.4997 27.7502C13.4997 28.1646 13.8356 28.5005 14.2501 28.5005H22.4998C23.1587 28.5005 23.7688 28.2865 24.2642 27.9241C24.2787 27.9145 24.2931 27.9057 24.3075 27.8945L33.6619 20.6972C34.1734 20.3036 34.87 20.2907 35.3959 20.6651C35.7719 20.9329 35.9947 21.3505 36.0075 21.8123C36.0204 22.2732 35.8208 22.7021 35.4608 22.9907ZM9.00007 23.2505V34.5001H3.2226L6.57829 21.7506H9.00007V23.2505ZM36.2665 19.4434C35.1995 18.6834 33.7854 18.7099 32.7472 19.5083L25.4731 25.1055C25.2791 23.6369 24.0197 22.5001 22.4998 22.5001H10.5V21.0002C10.5 20.5858 10.1641 20.2499 9.7496 20.2499H5.9995C5.65961 20.2499 5.36139 20.4799 5.27481 20.8094L1.52471 35.0597C1.46539 35.2841 1.51429 35.5238 1.65618 35.7082C1.79807 35.8926 2.01772 36 2.2502 36H9.7496C10.1641 36 10.5 35.6649 10.5 35.2505V33.793L23.1708 34.4993C23.1844 34.5001 23.198 34.5001 23.2125 34.5001C23.3816 34.5001 23.5475 34.4424 23.6806 34.3358L36.3979 24.1619C37.129 23.5775 37.5331 22.7053 37.5066 21.7698C37.481 20.8343 37.0288 19.9861 36.2665 19.4434Z" fill="#1C293F"/>
<path d="M6.33429 31.6268C6.2926 31.654 6.25492 31.6853 6.22045 31.7198C6.18598 31.7542 6.15392 31.7927 6.12746 31.8336C6.10021 31.8745 6.07696 31.9178 6.05852 31.9635C6.03928 32.0084 6.02485 32.0556 6.01523 32.1037C6.00561 32.1518 6 32.2016 6 32.2505C6 32.2986 6.00561 32.3483 6.01523 32.3964C6.02485 32.4445 6.03928 32.4917 6.05852 32.5366C6.07696 32.5823 6.10021 32.6256 6.12746 32.6665C6.15392 32.7074 6.18598 32.7459 6.22045 32.7803C6.25492 32.8148 6.2926 32.8461 6.33429 32.8733C6.37437 32.9006 6.41846 32.9238 6.46416 32.9423C6.50905 32.9607 6.55635 32.9759 6.60444 32.9848C6.65174 32.9952 6.70144 33 6.75034 33C6.79924 33 6.84894 32.9952 6.89624 32.9848C6.94434 32.9759 6.99164 32.9607 7.03733 32.9423C7.08223 32.9238 7.12631 32.9006 7.1664 32.8733C7.20808 32.8461 7.24576 32.8148 7.28103 32.7803C7.3155 32.7459 7.34677 32.7074 7.37403 32.6665C7.40048 32.6256 7.42372 32.5823 7.44296 32.5366C7.4614 32.4917 7.47663 32.4445 7.48545 32.3964C7.49507 32.3483 7.50068 32.2986 7.50068 32.2505C7.50068 32.2016 7.49507 32.1518 7.48545 32.1037C7.47663 32.0556 7.4614 32.0084 7.44296 31.9635C7.42372 31.9178 7.40048 31.8745 7.37403 31.8336C7.34677 31.7927 7.3155 31.7542 7.28103 31.7198C7.24576 31.6853 7.20808 31.654 7.1664 31.6268C7.12631 31.5987 7.08223 31.5763 7.03733 31.5578C6.99164 31.5394 6.94434 31.5241 6.89624 31.5145C6.80004 31.4953 6.70064 31.4953 6.60444 31.5145C6.55635 31.5241 6.50905 31.5394 6.46416 31.5578C6.41846 31.5763 6.37437 31.5987 6.33429 31.6268Z" fill="#1C293F"/>
<path d="M30.7495 7.5H32.2502C32.6639 7.5 32.9998 7.16411 32.9998 6.74965C32.9998 6.33519 32.6639 6.0001 32.2502 6.0001H30.7495C30.3359 6.0001 30 6.33519 30 6.74965C30 7.16411 30.3359 7.5 30.7495 7.5Z" fill="#1C293F"/>
<path d="M38.2501 6.0001H35.2503C34.8359 6.0001 34.5 6.33519 34.5 6.74965C34.5 7.16411 34.8359 7.5 35.2503 7.5H38.2501C38.6646 7.5 39.0004 7.16411 39.0004 6.74965C39.0004 6.33519 38.6646 6.0001 38.2501 6.0001Z" fill="#1C293F"/>
<path d="M30.7495 4.5H32.2502C32.6639 4.5 32.9998 4.16491 32.9998 3.75045C32.9998 3.33599 32.6639 3.0001 32.2502 3.0001H30.7495C30.3359 3.0001 30 3.33599 30 3.75045C30 4.16491 30.3359 4.5 30.7495 4.5Z" fill="#1C293F"/>
<path d="M38.2501 3.0001H35.2503C34.8359 3.0001 34.5 3.33599 34.5 3.75045C34.5 4.16491 34.8359 4.5 35.2503 4.5H38.2501C38.6646 4.5 39.0004 4.16491 39.0004 3.75045C39.0004 3.33599 38.6646 3.0001 38.2501 3.0001Z" fill="#1C293F"/>
<path d="M30.7495 1.5H32.2502C32.6639 1.5 32.9998 1.16411 32.9998 0.750451C32.9998 0.335995 32.6639 9.97782e-05 32.2502 9.97782e-05H30.7495C30.3359 9.97782e-05 30 0.335995 30 0.750451C30 1.16411 30.3359 1.5 30.7495 1.5Z" fill="#1C293F"/>
<path d="M35.2503 1.5H38.2501C38.6646 1.5 39.0004 1.16411 39.0004 0.750451C39.0004 0.335995 38.6646 9.97782e-05 38.2501 9.97782e-05H35.2503C34.8359 9.97782e-05 34.5 0.335995 34.5 0.750451C34.5 1.16411 34.8359 1.5 35.2503 1.5Z" fill="#1C293F"/>
<path d="M6.75034 7.5H8.25022C8.66468 7.5 9.00056 7.16411 9.00056 6.74965C9.00056 6.33519 8.66468 6.0001 8.25022 6.0001H6.75034C6.33589 6.0001 6 6.33519 6 6.74965C6 7.16411 6.33589 7.5 6.75034 7.5Z" fill="#1C293F"/>
<path d="M4.49965 6.74965C4.49965 6.33519 4.16376 6.0001 3.75011 6.0001H0.750346C0.335895 6.0001 0 6.33519 0 6.74965C0 7.16411 0.335895 7.5 0.750346 7.5H3.75011C4.16376 7.5 4.49965 7.16411 4.49965 6.74965Z" fill="#1C293F"/>
<path d="M6.75034 4.5H8.25022C8.66468 4.5 9.00056 4.16491 9.00056 3.75045C9.00056 3.33599 8.66468 3.0001 8.25022 3.0001H6.75034C6.33589 3.0001 6 3.33599 6 3.75045C6 4.16491 6.33589 4.5 6.75034 4.5Z" fill="#1C293F"/>
<path d="M0.750346 4.5H3.75011C4.16376 4.5 4.49965 4.16491 4.49965 3.75045C4.49965 3.33599 4.16376 3.0001 3.75011 3.0001H0.750346C0.335895 3.0001 0 3.33599 0 3.75045C0 4.16491 0.335895 4.5 0.750346 4.5Z" fill="#1C293F"/>
<path d="M6.75034 1.5H8.25022C8.66468 1.5 9.00056 1.16411 9.00056 0.750451C9.00056 0.335995 8.66468 9.97782e-05 8.25022 9.97782e-05H6.75034C6.33589 9.97782e-05 6 0.335995 6 0.750451C6 1.16411 6.33589 1.5 6.75034 1.5Z" fill="#1C293F"/>
<path d="M0.750346 1.5H3.75011C4.16376 1.5 4.49965 1.16411 4.49965 0.750451C4.49965 0.335995 4.16376 9.97782e-05 3.75011 9.97782e-05H0.750346C0.335895 9.97782e-05 0 0.335995 0 0.750451C0 1.16411 0.335895 1.5 0.750346 1.5Z" fill="#1C293F"/>
<path d="M25.1795 12.051L19.4998 17.6931L15.2784 13.4996H16.4993C16.8568 13.4996 17.1646 13.2479 17.2352 12.8968L17.4701 11.7231L18.7976 15.2632C18.9082 15.5575 19.1888 15.7498 19.499 15.7498C19.5191 15.7498 19.5399 15.749 19.56 15.7474C19.8943 15.7202 20.1692 15.4757 20.235 15.147L20.8642 11.9997H25.23L25.1795 12.051ZM8.24954 11.9997C7.83509 11.9997 7.5 12.3356 7.5 12.7501C7.5 13.1637 7.83509 13.4996 8.24954 13.4996H13.15L18.9708 19.2819C19.1175 19.427 19.3083 19.5 19.4998 19.5C19.6906 19.5 19.8822 19.427 20.0281 19.2819L26.2385 13.1132L26.8277 12.524C26.9928 12.3588 27.1452 12.1833 27.2846 11.9997H29.9998C30.4135 11.9997 30.7494 11.6638 30.7494 11.2502C30.7494 10.8357 30.4135 10.4998 29.9998 10.4998H28.0751C28.2434 9.98674 28.3324 9.44562 28.3324 8.89008C28.3324 7.51684 27.7985 6.22617 26.8277 5.25537C25.8569 4.28456 24.5655 3.74985 23.193 3.74985C21.8198 3.74985 20.5292 4.28456 19.5584 5.25537L19.4998 5.31389L19.4405 5.25537C17.4372 3.25122 14.1761 3.25122 12.172 5.25537C11.2012 6.22617 10.6665 7.51684 10.6665 8.89008C10.6665 10.0284 11.0353 11.1099 11.7151 11.9997H8.24954Z" fill="#1C293F"/>
</svg>
